{
	"asset":{
		"generator":"Khronos glTF Blender I/O v4.2.60",
		"version":"2.0"
	},
	"extensionsUsed":[
		"KHR_materials_emissive_strength"
	],
	"scene":0,
	"scenes":[
		{
			"name":"Scene",
			"nodes":[
				0,
				1,
				2,
				3,
				4,
				5,
				6,
				7,
				8,
				9,
				10,
				11,
				12,
				13,
				14,
				15,
				16,
				17,
				18,
				19,
				20,
				21,
				22,
				23,
				24,
				25,
				26,
				27,
				28,
				29,
				30,
				31
			]
		}
	],
	"nodes":[
		{
			"mesh":0,
			"name":"Roundcube",
			"translation":[
				-0.020122528076171875,
				2.279815673828125,
				0
			]
		},
		{
			"mesh":1,
			"name":"Roundcube.001",
			"translation":[
				-0.020122528076171875,
				2.279815673828125,
				0
			]
		},
		{
			"mesh":2,
			"name":"Cube",
			"translation":[
				0.9055700302124023,
				2.4775173664093018,
				0
			]
		},
		{
			"mesh":3,
			"name":"Cylinder.001",
			"translation":[
				0.3531060218811035,
				2.5445339679718018,
				1.0237756967544556
			]
		},
		{
			"mesh":4,
			"name":"Cylinder",
			"rotation":[
				0,
				0,
				-0.7071068286895752,
				0.7071068286895752
			],
			"scale":[
				0.10480163991451263,
				0.2431676834821701,
				0.10480163991451263
			],
			"translation":[
				-0.7272293567657471,
				1.5727088451385498,
				0
			]
		},
		{
			"mesh":5,
			"name":"Cube.001",
			"translation":[
				-0.7682565450668335,
				1.1244701147079468,
				0.24499669671058655
			]
		},
		{
			"mesh":6,
			"name":"Cube.002",
			"rotation":[
				0.364272803068161,
				0.6060574650764465,
				0.36427250504493713,
				0.6060572266578674
			],
			"translation":[
				-0.6016042232513428,
				1.1191174983978271,
				0.26547300815582275
			]
		},
		{
			"mesh":5,
			"name":"Cube.003",
			"translation":[
				-0.7682565450668335,
				1.1244701147079468,
				0.24499669671058655
			]
		},
		{
			"mesh":4,
			"name":"Cylinder.002",
			"rotation":[
				0,
				0,
				-0.7071068286895752,
				0.7071068286895752
			],
			"scale":[
				0.10480163991451263,
				0.2431676834821701,
				0.10480163991451263
			],
			"translation":[
				-0.7272293567657471,
				1.5727088451385498,
				0
			]
		},
		{
			"mesh":5,
			"name":"Cube.004",
			"translation":[
				-0.7682565450668335,
				1.1244701147079468,
				0.24499669671058655
			]
		},
		{
			"mesh":6,
			"name":"Cube.005",
			"rotation":[
				0.364272803068161,
				0.6060574650764465,
				0.36427250504493713,
				0.6060572266578674
			],
			"translation":[
				-0.6016042232513428,
				1.1191174983978271,
				0.26547300815582275
			]
		},
		{
			"mesh":5,
			"name":"Cube.006",
			"translation":[
				-0.7682565450668335,
				1.1244701147079468,
				0.24499669671058655
			]
		},
		{
			"mesh":4,
			"name":"Cylinder.003",
			"rotation":[
				0.36463096737861633,
				0.36463096737861633,
				-0.6058417558670044,
				0.6058418154716492
			],
			"scale":[
				0.10480163991451263,
				0.2431676834821701,
				0.10480163991451263
			],
			"translation":[
				-0.7348253726959229,
				0.8285537958145142,
				0.4062499403953552
			]
		},
		{
			"mesh":5,
			"name":"Cube.007",
			"rotation":[
				0.5156660676002502,
				0,
				0,
				0.8567896485328674
			],
			"translation":[
				-0.7758525609970093,
				0.40221107006073,
				0.12487243115901947
			]
		},
		{
			"mesh":6,
			"name":"Cube.008",
			"rotation":[
				0.6246282458305359,
				0.33142080903053284,
				0.6246281266212463,
				0.33142051100730896
			],
			"translation":[
				-0.6092002391815186,
				0.3816114664077759,
				0.12972916662693024
			]
		},
		{
			"mesh":5,
			"name":"Cube.009",
			"rotation":[
				0.5156660676002502,
				0,
				0,
				0.8567896485328674
			],
			"translation":[
				-0.7758525609970093,
				0.40221107006073,
				0.12487243115901947
			]
		},
		{
			"mesh":4,
			"name":"Cylinder.004",
			"rotation":[
				0.36463096737861633,
				0.36463096737861633,
				-0.6058417558670044,
				0.6058418154716492
			],
			"scale":[
				0.10480163991451263,
				0.2431676834821701,
				0.10480163991451263
			],
			"translation":[
				-0.7418335676193237,
				0.10152506828308105,
				-0.085206538438797
			]
		},
		{
			"mesh":7,
			"name":"Cube.010",
			"translation":[
				-0.7380809783935547,
				0.014822959899902344,
				0.15767040848731995
			]
		},
		{
			"mesh":5,
			"name":"Cube.011",
			"translation":[
				0.629662275314331,
				1.1244701147079468,
				0.24499669671058655
			]
		},
		{
			"mesh":6,
			"name":"Cube.012",
			"rotation":[
				0.36427274346351624,
				0.6060574650764465,
				0.3642725348472595,
				0.6060572266578674
			],
			"translation":[
				0.7963144779205322,
				1.1191174983978271,
				0.26547300815582275
			]
		},
		{
			"mesh":5,
			"name":"Cube.013",
			"translation":[
				0.629662275314331,
				1.1244701147079468,
				0.24499669671058655
			]
		},
		{
			"mesh":4,
			"name":"Cylinder.005",
			"rotation":[
				0,
				0,
				-0.7071068286895752,
				0.7071068286895752
			],
			"scale":[
				0.10480163991451263,
				0.2431676834821701,
				0.10480163991451263
			],
			"translation":[
				0.6706893444061279,
				1.5727088451385498,
				0
			]
		},
		{
			"mesh":5,
			"name":"Cube.014",
			"translation":[
				0.629662275314331,
				1.1244701147079468,
				0.24499669671058655
			]
		},
		{
			"mesh":6,
			"name":"Cube.015",
			"rotation":[
				0.36427274346351624,
				0.6060574650764465,
				0.3642725348472595,
				0.6060572266578674
			],
			"translation":[
				0.7963144779205322,
				1.1191174983978271,
				0.26547300815582275
			]
		},
		{
			"mesh":5,
			"name":"Cube.016",
			"translation":[
				0.629662275314331,
				1.1244701147079468,
				0.24499669671058655
			]
		},
		{
			"mesh":4,
			"name":"Cylinder.006",
			"rotation":[
				0.3646307587623596,
				0.36463093757629395,
				-0.6058417558670044,
				0.6058419346809387
			],
			"scale":[
				0.10480163991451263,
				0.2431676834821701,
				0.10480163991451263
			],
			"translation":[
				0.6630933284759521,
				0.8285537958145142,
				0.4062499403953552
			]
		},
		{
			"mesh":5,
			"name":"Cube.017",
			"rotation":[
				0.5156660676002502,
				0,
				0,
				0.8567896485328674
			],
			"translation":[
				0.6220662593841553,
				0.40221107006073,
				0.12487243115901947
			]
		},
		{
			"mesh":6,
			"name":"Cube.018",
			"rotation":[
				0.6246281862258911,
				0.3314208984375,
				0.6246280670166016,
				0.33142057061195374
			],
			"translation":[
				0.7887184619903564,
				0.3816114664077759,
				0.12972916662693024
			]
		},
		{
			"mesh":5,
			"name":"Cube.019",
			"rotation":[
				0.5156660676002502,
				0,
				0,
				0.8567896485328674
			],
			"translation":[
				0.6220662593841553,
				0.40221107006073,
				0.12487243115901947
			]
		},
		{
			"mesh":4,
			"name":"Cylinder.007",
			"rotation":[
				0.3646307587623596,
				0.36463093757629395,
				-0.6058417558670044,
				0.6058419346809387
			],
			"scale":[
				0.10480163991451263,
				0.2431676834821701,
				0.10480163991451263
			],
			"translation":[
				0.6560852527618408,
				0.10152506828308105,
				-0.085206538438797
			]
		},
		{
			"mesh":7,
			"name":"Cube.020",
			"translation":[
				0.6598377227783203,
				0.014822959899902344,
				0.15767040848731995
			]
		},
		{
			"mesh":8,
			"name":"Plane",
			"translation":[
				-2.659841299057007,
				2.665421485900879,
				0
			]
		}
	],
	"materials":[
		{
			"doubleSided":true,
			"name":"Cup",
			"pbrMetallicRoughness":{
				"baseColorFactor":[
					0.8000000715255737,
					0.6557679772377014,
					0.4949904680252075,
					1
				],
				"metallicFactor":0,
				"roughnessFactor":0.30000001192092896
			}
		},
		{
			"doubleSided":true,
			"name":"Cup2",
			"pbrMetallicRoughness":{
				"baseColorFactor":[
					0.8000000715255737,
					0.11405806988477707,
					0.03590558096766472,
					1
				],
				"metallicFactor":0,
				"roughnessFactor":0.5
			}
		},
		{
			"doubleSided":true,
			"name":"Metal",
			"pbrMetallicRoughness":{
				"baseColorFactor":[
					0.800000011920929,
					0.800000011920929,
					0.800000011920929,
					1
				],
				"roughnessFactor":0.31889763474464417
			}
		},
		{
			"doubleSided":true,
			"name":"Lens",
			"pbrMetallicRoughness":{
				"baseColorFactor":[
					0.003207684960216284,
					0.006153460126370192,
					0.02539389207959175,
					1
				],
				"metallicFactor":0,
				"roughnessFactor":0.25590550899505615
			}
		},
		{
			"doubleSided":true,
			"emissiveFactor":[
				0.0074324340372445225,
				0.5399922299065776,
				1
			],
			"extensions":{
				"KHR_materials_emissive_strength":{
					"emissiveStrength":1.2328117489814758
				}
			},
			"name":"Pupil",
			"pbrMetallicRoughness":{
				"baseColorFactor":[
					0.003207684960216284,
					0.006153460126370192,
					0.02539389207959175,
					1
				],
				"metallicFactor":0,
				"roughnessFactor":0.25590550899505615
			}
		}
	],
	"meshes":[
		{
			"name":"Roundcube",
			"primitives":[
				{
					"attributes":{
						"POSITION":0,
						"NORMAL":1
					},
					"indices":2,
					"material":0
				},
				{
					"attributes":{
						"POSITION":3,
						"NORMAL":4
					},
					"indices":5,
					"material":1
				}
			]
		},
		{
			"name":"Roundcube.002",
			"primitives":[
				{
					"attributes":{
						"POSITION":6,
						"NORMAL":7
					},
					"indices":8,
					"material":1
				}
			]
		},
		{
			"name":"Cube",
			"primitives":[
				{
					"attributes":{
						"POSITION":9,
						"NORMAL":10,
						"TEXCOORD_0":11
					},
					"indices":12,
					"material":0
				}
			]
		},
		{
			"name":"Cylinder.001",
			"primitives":[
				{
					"attributes":{
						"POSITION":13,
						"NORMAL":14,
						"TEXCOORD_0":15
					},
					"indices":16,
					"material":2
				},
				{
					"attributes":{
						"POSITION":17,
						"NORMAL":18,
						"TEXCOORD_0":19
					},
					"indices":20,
					"material":3
				},
				{
					"attributes":{
						"POSITION":21,
						"NORMAL":22,
						"TEXCOORD_0":23
					},
					"indices":20,
					"material":4
				}
			]
		},
		{
			"name":"Cylinder",
			"primitives":[
				{
					"attributes":{
						"POSITION":24,
						"NORMAL":25,
						"TEXCOORD_0":26
					},
					"indices":27,
					"material":2
				}
			]
		},
		{
			"name":"Cube.002",
			"primitives":[
				{
					"attributes":{
						"POSITION":28,
						"NORMAL":29,
						"TEXCOORD_0":30
					},
					"indices":31,
					"material":1
				}
			]
		},
		{
			"name":"Cube.003",
			"primitives":[
				{
					"attributes":{
						"POSITION":32,
						"NORMAL":33,
						"TEXCOORD_0":34
					},
					"indices":35
				}
			]
		},
		{
			"name":"Cube.004",
			"primitives":[
				{
					"attributes":{
						"POSITION":36,
						"NORMAL":37,
						"TEXCOORD_0":38
					},
					"indices":31,
					"material":1
				}
			]
		},
		{
			"name":"Plane",
			"primitives":[
				{
					"attributes":{
						"POSITION":39,
						"NORMAL":40,
						"TEXCOORD_0":41
					},
					"indices":42,
					"material":1
				}
			]
		}
	],
	"accessors":[
		{
			"bufferView":0,
			"componentType":5126,
			"count":32,
			"max":[
				1,
				1.541146159172058,
				1
			],
			"min":[
				-1,
				0.19770175218582153,
				-1
			],
			"type":"VEC3"
		},
		{
			"bufferView":1,
			"componentType":5126,
			"count":32,
			"type":"VEC3"
		},
		{
			"bufferView":2,
			"componentType":5123,
			"count":96,
			"type":"SCALAR"
		},
		{
			"bufferView":3,
			"componentType":5126,
			"count":73,
			"max":[
				1,
				0.19770175218582153,
				1
			],
			"min":[
				-1,
				-1,
				-1
			],
			"type":"VEC3"
		},
		{
			"bufferView":4,
			"componentType":5126,
			"count":73,
			"type":"VEC3"
		},
		{
			"bufferView":5,
			"componentType":5123,
			"count":384,
			"type":"SCALAR"
		},
		{
			"bufferView":6,
			"componentType":5126,
			"count":89,
			"max":[
				1.0027161836624146,
				1.550066590309143,
				1.0027161836624146
			],
			"min":[
				-1.0027161836624146,
				-0.8946720957756042,
				-1.0027161836624146
			],
			"type":"VEC3"
		},
		{
			"bufferView":7,
			"componentType":5126,
			"count":89,
			"type":"VEC3"
		},
		{
			"bufferView":8,
			"componentType":5123,
			"count":480,
			"type":"SCALAR"
		},
		{
			"bufferView":9,
			"componentType":5126,
			"count":53,
			"max":[
				0.5267656445503235,
				0.5877955555915833,
				0.09986905753612518
			],
			"min":[
				0.07343624532222748,
				-0.32888245582580566,
				-0.09986905753612518
			],
			"type":"VEC3"
		},
		{
			"bufferView":10,
			"componentType":5126,
			"count":53,
			"type":"VEC3"
		},
		{
			"bufferView":11,
			"componentType":5126,
			"count":53,
			"type":"VEC2"
		},
		{
			"bufferView":12,
			"componentType":5123,
			"count":204,
			"type":"SCALAR"
		},
		{
			"bufferView":13,
			"componentType":5126,
			"count":98,
			"max":[
				0.32843321561813354,
				0.32843321561813354,
				0.14047548174858093
			],
			"min":[
				-0.32843321561813354,
				-0.32843321561813354,
				-0.03362384811043739
			],
			"type":"VEC3"
		},
		{
			"bufferView":14,
			"componentType":5126,
			"count":98,
			"type":"VEC3"
		},
		{
			"bufferView":15,
			"componentType":5126,
			"count":98,
			"type":"VEC2"
		},
		{
			"bufferView":16,
			"componentType":5123,
			"count":372,
			"type":"SCALAR"
		},
		{
			"bufferView":17,
			"componentType":5126,
			"count":50,
			"max":[
				0.27393606305122375,
				0.27393606305122375,
				0.122784823179245
			],
			"min":[
				-0.27393606305122375,
				-0.27393606305122375,
				0.10142320394515991
			],
			"type":"VEC3"
		},
		{
			"bufferView":18,
			"componentType":5126,
			"count":50,
			"type":"VEC3"
		},
		{
			"bufferView":19,
			"componentType":5126,
			"count":50,
			"type":"VEC2"
		},
		{
			"bufferView":20,
			"componentType":5123,
			"count":288,
			"type":"SCALAR"
		},
		{
			"bufferView":21,
			"componentType":5126,
			"count":50,
			"max":[
				0.1844792664051056,
				0.1844792664051056,
				0.1470561921596527
			],
			"min":[
				-0.1844792664051056,
				-0.1844792664051056,
				0.13267044723033905
			],
			"type":"VEC3"
		},
		{
			"bufferView":22,
			"componentType":5126,
			"count":50,
			"type":"VEC3"
		},
		{
			"bufferView":23,
			"componentType":5126,
			"count":50,
			"type":"VEC2"
		},
		{
			"bufferView":24,
			"componentType":5126,
			"count":84,
			"max":[
				1,
				1,
				1
			],
			"min":[
				-1,
				-1,
				-1
			],
			"type":"VEC3"
		},
		{
			"bufferView":25,
			"componentType":5126,
			"count":84,
			"type":"VEC3"
		},
		{
			"bufferView":26,
			"componentType":5126,
			"count":84,
			"type":"VEC2"
		},
		{
			"bufferView":27,
			"componentType":5123,
			"count":276,
			"type":"SCALAR"
		},
		{
			"bufferView":28,
			"componentType":5126,
			"count":14,
			"max":[
				0.2659696340560913,
				0.4171617329120636,
				0.18970537185668945
			],
			"min":[
				-0.19982345402240753,
				-0.29904863238334656,
				-0.2524643838405609
			],
			"type":"VEC3"
		},
		{
			"bufferView":29,
			"componentType":5126,
			"count":14,
			"type":"VEC3"
		},
		{
			"bufferView":30,
			"componentType":5126,
			"count":14,
			"type":"VEC2"
		},
		{
			"bufferView":31,
			"componentType":5123,
			"count":36,
			"type":"SCALAR"
		},
		{
			"bufferView":32,
			"componentType":5126,
			"count":44,
			"max":[
				0.460600346326828,
				0.0916600227355957,
				0.1943076252937317
			],
			"min":[
				-0.5288397073745728,
				-0.09165996313095093,
				-0.1943076252937317
			],
			"type":"VEC3"
		},
		{
			"bufferView":33,
			"componentType":5126,
			"count":44,
			"type":"VEC3"
		},
		{
			"bufferView":34,
			"componentType":5126,
			"count":44,
			"type":"VEC2"
		},
		{
			"bufferView":35,
			"componentType":5123,
			"count":84,
			"type":"SCALAR"
		},
		{
			"bufferView":36,
			"componentType":5126,
			"count":14,
			"max":[
				0.241665780544281,
				0.03653240203857422,
				0.2783238887786865
			],
			"min":[
				-0.241665780544281,
				-0.03653240203857422,
				-0.2783238887786865
			],
			"type":"VEC3"
		},
		{
			"bufferView":37,
			"componentType":5126,
			"count":14,
			"type":"VEC3"
		},
		{
			"bufferView":38,
			"componentType":5126,
			"count":14,
			"type":"VEC2"
		},
		{
			"bufferView":39,
			"componentType":5126,
			"count":32,
			"max":[
				1.54266412977222e-08,
				0.46002912521362305,
				0.17689961194992065
			],
			"min":[
				-2.5711068829536998e-08,
				-0.08485633134841919,
				-0.47677478194236755
			],
			"type":"VEC3"
		},
		{
			"bufferView":40,
			"componentType":5126,
			"count":32,
			"type":"VEC3"
		},
		{
			"bufferView":41,
			"componentType":5126,
			"count":32,
			"type":"VEC2"
		},
		{
			"bufferView":42,
			"componentType":5123,
			"count":84,
			"type":"SCALAR"
		}
	],
	"bufferViews":[
		{
			"buffer":0,
			"byteLength":384,
			"byteOffset":0,
			"target":34962
		},
		{
			"buffer":0,
			"byteLength":384,
			"byteOffset":384,
			"target":34962
		},
		{
			"buffer":0,
			"byteLength":192,
			"byteOffset":768,
			"target":34963
		},
		{
			"buffer":0,
			"byteLength":876,
			"byteOffset":960,
			"target":34962
		},
		{
			"buffer":0,
			"byteLength":876,
			"byteOffset":1836,
			"target":34962
		},
		{
			"buffer":0,
			"byteLength":768,
			"byteOffset":2712,
			"target":34963
		},
		{
			"buffer":0,
			"byteLength":1068,
			"byteOffset":3480,
			"target":34962
		},
		{
			"buffer":0,
			"byteLength":1068,
			"byteOffset":4548,
			"target":34962
		},
		{
			"buffer":0,
			"byteLength":960,
			"byteOffset":5616,
			"target":34963
		},
		{
			"buffer":0,
			"byteLength":636,
			"byteOffset":6576,
			"target":34962
		},
		{
			"buffer":0,
			"byteLength":636,
			"byteOffset":7212,
			"target":34962
		},
		{
			"buffer":0,
			"byteLength":424,
			"byteOffset":7848,
			"target":34962
		},
		{
			"buffer":0,
			"byteLength":408,
			"byteOffset":8272,
			"target":34963
		},
		{
			"buffer":0,
			"byteLength":1176,
			"byteOffset":8680,
			"target":34962
		},
		{
			"buffer":0,
			"byteLength":1176,
			"byteOffset":9856,
			"target":34962
		},
		{
			"buffer":0,
			"byteLength":784,
			"byteOffset":11032,
			"target":34962
		},
		{
			"buffer":0,
			"byteLength":744,
			"byteOffset":11816,
			"target":34963
		},
		{
			"buffer":0,
			"byteLength":600,
			"byteOffset":12560,
			"target":34962
		},
		{
			"buffer":0,
			"byteLength":600,
			"byteOffset":13160,
			"target":34962
		},
		{
			"buffer":0,
			"byteLength":400,
			"byteOffset":13760,
			"target":34962
		},
		{
			"buffer":0,
			"byteLength":576,
			"byteOffset":14160,
			"target":34963
		},
		{
			"buffer":0,
			"byteLength":600,
			"byteOffset":14736,
			"target":34962
		},
		{
			"buffer":0,
			"byteLength":600,
			"byteOffset":15336,
			"target":34962
		},
		{
			"buffer":0,
			"byteLength":400,
			"byteOffset":15936,
			"target":34962
		},
		{
			"buffer":0,
			"byteLength":1008,
			"byteOffset":16336,
			"target":34962
		},
		{
			"buffer":0,
			"byteLength":1008,
			"byteOffset":17344,
			"target":34962
		},
		{
			"buffer":0,
			"byteLength":672,
			"byteOffset":18352,
			"target":34962
		},
		{
			"buffer":0,
			"byteLength":552,
			"byteOffset":19024,
			"target":34963
		},
		{
			"buffer":0,
			"byteLength":168,
			"byteOffset":19576,
			"target":34962
		},
		{
			"buffer":0,
			"byteLength":168,
			"byteOffset":19744,
			"target":34962
		},
		{
			"buffer":0,
			"byteLength":112,
			"byteOffset":19912,
			"target":34962
		},
		{
			"buffer":0,
			"byteLength":72,
			"byteOffset":20024,
			"target":34963
		},
		{
			"buffer":0,
			"byteLength":528,
			"byteOffset":20096,
			"target":34962
		},
		{
			"buffer":0,
			"byteLength":528,
			"byteOffset":20624,
			"target":34962
		},
		{
			"buffer":0,
			"byteLength":352,
			"byteOffset":21152,
			"target":34962
		},
		{
			"buffer":0,
			"byteLength":168,
			"byteOffset":21504,
			"target":34963
		},
		{
			"buffer":0,
			"byteLength":168,
			"byteOffset":21672,
			"target":34962
		},
		{
			"buffer":0,
			"byteLength":168,
			"byteOffset":21840,
			"target":34962
		},
		{
			"buffer":0,
			"byteLength":112,
			"byteOffset":22008,
			"target":34962
		},
		{
			"buffer":0,
			"byteLength":384,
			"byteOffset":22120,
			"target":34962
		},
		{
			"buffer":0,
			"byteLength":384,
			"byteOffset":22504,
			"target":34962
		},
		{
			"buffer":0,
			"byteLength":256,
			"byteOffset":22888,
			"target":34962
		},
		{
			"buffer":0,
			"byteLength":168,
			"byteOffset":23144,
			"target":34963
		}
	],
	"buffers":[
		{
			"byteLength":23312,
			"uri":"robot_cup.bin"
		}
	]
}
